<?xml version="1.0" standalone="no"?>
<!DOCTYPE svg PUBLIC "-//W3C//DTD SVG 20010904//EN"
 "http://www.w3.org/TR/2001/REC-SVG-20010904/DTD/svg10.dtd">
<svg version="1.0" xmlns="http://www.w3.org/2000/svg"
 width="404.000000pt" height="404.000000pt" viewBox="0 0 404.000000 404.000000"
 preserveAspectRatio="xMidYMid meet">
<metadata>
Created by potrace 1.14, written by Peter Selinger 2001-2017
</metadata>
<g transform="translate(0.000000,404.000000) scale(0.100000,-0.100000)"
fill="#000000" stroke="none">
<path d="M407 4030 c-163 -28 -310 -165 -358 -335 -21 -75 -21 -3275 0 -3350
49 -175 193 -307 366 -335 81 -13 3129 -13 3209 0 173 28 318 161 367 335 12
42 14 308 14 1675 0 1367 -2 1633 -14 1675 -49 174 -194 307 -367 335 -72 12
-3147 11 -3217 0z m3263 -198 c63 -33 105 -76 132 -136 l23 -51 0 -1625 0
-1625 -23 -51 c-27 -60 -69 -103 -132 -136 l-45 -23 -1605 0 -1605 0 -45 23
c-63 33 -105 76 -132 136 l-23 51 0 1625 0 1625 23 50 c37 80 102 136 180 154
21 5 724 8 1622 8 l1585 -2 45 -23z"/>
<path d="M700 2451 l0 -1031 583 0 c468 1 594 3 642 15 134 32 284 137 336
236 l24 44 3 715 c3 831 10 772 -98 880 -41 41 -89 78 -130 98 -134 67 -115
65 -767 69 l-593 4 0 -1030z m1090 -1 l0 -660 -290 0 -290 0 0 660 0 660 290
0 290 0 0 -660z"/>
</g>
</svg>
